# xmcd
#
# Track frame offsets: 
#        200
#        8832
#        21947
#        30595
#        44810
#        61937
#        78917
#        92400
#        107012
#        122027
#        136215
#        150670
#
# Disc length: 2137 seconds
#
# Revision: 0
# Processed by: cddbd v1.4b42PL1 Copyright (c) Steve Scherf et al.
# Submitted via: ExactAudioCopy v0.90a11
#
DISCID=8e08570c
DTITLE=Lanny Cordola - Blues For The Child
DYEAR=1900
DGENRE=
TTITLE0=Minuet
TTITLE1=Silent Night
TTITLE2=Still, Still, Still
TTITLE3=Blues For The Child
TTITLE4=Wexford Carol
TTITLE5=What Child Is This
TTITLE6=I Heard The Bells On Christmas Day
TTITLE7=Angels We Have Heard On High
TTITLE8=Christmas Lullaby
TTITLE9=Away In A Manger
TTITLE10=Christmas Song
TTITLE11=We Wish You A Merry Christmas
EXTD=
EXTT0=
EXTT1=
EXTT2=
EXTT3=
EXTT4=
EXTT5=
EXTT6=
EXTT7=
EXTT8=
EXTT9=
EXTT10=
EXTT11=
PLAYORDER=
